<?xml version="1.0" encoding="utf-8"?>
<!-- Generator: Adobe Illustrator 25.4.1, SVG Export Plug-In . SVG Version: 6.00 Build 0)  -->
<svg version="1.1" id="Capa_1" xmlns="http://www.w3.org/2000/svg" xmlns:xlink="http://www.w3.org/1999/xlink" x="0px" y="0px"
	 viewBox="0 0 512 512" style="enable-background:new 0 0 512 512;" xml:space="preserve">
<style type="text/css">
	.st0{fill:#FFFFFF;}
</style>
<path class="st0" d="M301.3,18.7c25,25,25,65.5,0,90.5c-25,25-65.5,25-90.5,0s-25-65.5,0-90.5C235.7-6.2,276.3-6.2,301.3,18.7"/>
<path class="st0" d="M301.3,210.7c25,25,25,65.5,0,90.5c-25,25-65.5,25-90.5,0c-25-25-25-65.5,0-90.5
	C235.7,185.8,276.3,185.8,301.3,210.7"/>
<path class="st0" d="M301.3,402.7c25,25,25,65.5,0,90.5c-25,25-65.5,25-90.5,0c-25-25-25-65.5,0-90.5
	C235.7,377.8,276.3,377.8,301.3,402.7"/>
</svg>
